<svg width="329" height="85" viewBox="0 0 329 85" fill="none" xmlns="http://www.w3.org/2000/svg">
<path opacity="0.2" d="M41.0769 83.74L9.15689 1.63C8.84189 0.789995 7.37189 0.789995 7.05689 1.63L-24.7581 83.74C-25.0731 84.37 -24.6531 85 -23.7081 85H-9.32311C-8.90311 85 -8.37811 84.79 -8.27311 84.37L8.10689 37.54L24.6969 84.37C24.8019 84.79 25.3269 85 25.6419 85H40.1319C40.8669 85 41.3919 84.37 41.0769 83.74ZM90.7399 25.99C90.7399 35.23 78.3499 35.23 78.3499 35.23H65.7499V16.015H78.3499C78.3499 16.015 90.7399 15.91 90.7399 25.99ZM106.805 25.045C106.805 0.369994 78.3499 0.999999 78.3499 0.999999H50.9449C50.3149 0.999999 49.7899 1.525 49.7899 1.945V50.875H65.7499H78.3499C78.3499 50.875 91.8949 50.245 91.8949 60.115C91.8949 68.2 83.5999 69.67 78.3499 69.67H65.8549V85H78.3499C84.0199 85 107.96 83.95 107.96 60.535C107.96 60.535 108.485 47.515 95.1499 43C101.555 40.375 106.805 34.81 106.805 25.045ZM164.54 43.21C164.54 38.8 161.075 35.23 156.665 35.23C152.255 35.23 148.79 38.8 148.79 43.21C148.79 47.515 152.255 51.085 156.665 51.085C161.075 51.085 164.54 47.515 164.54 43.21ZM197.09 42.895C197.09 22 183.545 0.999999 156.77 0.999999C129.575 0.999999 116.24 22 116.24 42.895C116.24 63.895 129.575 85 156.77 85C183.545 85 197.09 63.895 197.09 42.895ZM181.34 43.21C181.34 56.755 173.045 70.3 156.77 70.3C140.285 70.3 132.095 56.755 132.095 43.21C132.095 29.455 140.285 15.805 156.77 15.805C173.045 15.805 181.34 29.455 181.34 43.21ZM268.326 0.999999H254.676C253.941 0.999999 253.521 1.525 253.521 1.945V56.965C253.521 65.47 245.751 69.565 237.876 69.565C230.106 69.565 223.176 65.155 222.231 56.86V16.225H206.376V56.965C206.376 74.29 220.551 85 237.876 85C255.726 85 269.376 74.71 269.376 56.965V1.945C269.376 1.525 268.851 0.999999 268.326 0.999999ZM295.175 31.45V84.055C295.175 84.475 295.595 85 296.33 85H309.875C310.61 85 311.135 84.475 311.135 84.055V31.45H295.175ZM279.005 15.385H327.2C327.935 15.385 328.355 14.965 328.355 14.44V1.945C328.355 1.525 327.935 0.999999 327.2 0.999999H279.005C278.375 0.999999 277.85 1.525 277.85 1.945V14.44C277.85 14.965 278.375 15.385 279.005 15.385Z" fill="white"/>
</svg>
