<svg width="326" height="124" viewBox="0 0 326 124" fill="none" xmlns="http://www.w3.org/2000/svg">
<rect x="105.618" y="94" width="5" height="30" fill="#74DB63"/>
<path d="M119.237 115.102L121.688 105.805C122.352 103.272 124.514 102.003 128.172 101.996H133.436C133.677 101.996 133.875 102.087 134.032 102.27C134.194 102.452 134.276 102.663 134.276 102.904V115.102C134.276 115.355 134.185 115.57 134.002 115.746C133.82 115.915 133.602 116 133.348 116H131.512C131.245 116 131.024 115.915 130.848 115.746C130.679 115.57 130.594 115.349 130.594 115.082V112.621H123.651L122.997 115.082C122.931 115.349 122.785 115.57 122.557 115.746C122.329 115.915 122.088 116 121.834 116H119.911C119.657 116 119.474 115.928 119.364 115.785C119.253 115.635 119.198 115.505 119.198 115.395C119.204 115.284 119.217 115.186 119.237 115.102ZM124.374 109.857H130.594V104.76H127.811C127.186 104.76 126.639 104.939 126.17 105.297C125.708 105.648 125.396 106.124 125.233 106.723L124.374 109.857ZM138.069 102.924C138.069 102.67 138.16 102.452 138.342 102.27C138.525 102.087 138.743 101.996 138.997 101.996H146.936C148.883 101.996 150.318 102.556 151.243 103.676C151.757 104.294 152.014 105.085 152.014 106.049C152.014 107.006 151.575 107.842 150.696 108.559C151.946 109.229 152.571 110.271 152.571 111.684C152.571 113.096 152.069 114.171 151.067 114.906C150.071 115.635 148.847 116 147.395 116H138.997C138.743 116 138.525 115.912 138.342 115.736C138.16 115.554 138.069 115.336 138.069 115.082V102.924ZM141.75 113.363H147.336C147.838 113.363 148.222 113.214 148.489 112.914C148.756 112.615 148.889 112.204 148.889 111.684C148.889 111.163 148.756 110.753 148.489 110.453C148.222 110.154 147.838 110.004 147.336 110.004H141.75V113.363ZM141.75 107.436H146.975C147.385 107.436 147.714 107.315 147.961 107.074C148.209 106.827 148.333 106.485 148.333 106.049C148.333 105.606 148.209 105.261 147.961 105.014C147.714 104.766 147.385 104.643 146.975 104.643H141.75V107.436ZM168.493 114.555C167.165 115.72 165.211 116.303 162.633 116.303C160.062 116.303 158.109 115.72 156.774 114.555C155.439 113.383 154.772 111.531 154.772 108.998C154.772 106.465 155.439 104.617 156.774 103.451C158.109 102.286 160.062 101.703 162.633 101.703C165.211 101.703 167.165 102.286 168.493 103.451C169.827 104.617 170.495 106.465 170.495 108.998C170.495 111.531 169.827 113.383 168.493 114.555ZM165.827 105.512C165.169 104.73 164.105 104.34 162.633 104.34C161.168 104.34 160.104 104.73 159.44 105.512C158.782 106.293 158.454 107.458 158.454 109.008C158.454 110.551 158.782 111.713 159.44 112.494C160.104 113.269 161.168 113.656 162.633 113.656C164.105 113.656 165.169 113.269 165.827 112.494C166.484 111.713 166.813 110.551 166.813 109.008C166.813 107.458 166.484 106.293 165.827 105.512ZM173.311 110.463V102.924C173.311 102.67 173.399 102.452 173.575 102.27C173.757 102.087 173.982 101.996 174.249 101.996H176.075C176.322 101.996 176.537 102.087 176.719 102.27C176.902 102.452 176.993 102.67 176.993 102.924V110.482C176.993 111.439 177.201 112.152 177.618 112.621C178.041 113.09 178.692 113.324 179.571 113.324H181.133C182.012 113.324 182.66 113.09 183.077 112.621C183.5 112.152 183.711 111.439 183.711 110.482V102.924C183.711 102.67 183.799 102.452 183.975 102.27C184.157 102.087 184.375 101.996 184.629 101.996H186.446C186.713 101.996 186.937 102.087 187.12 102.27C187.302 102.452 187.393 102.67 187.393 102.924V110.463C187.393 112.247 186.869 113.63 185.821 114.613C184.773 115.59 183.243 116.078 181.231 116.078H179.473C177.455 116.078 175.922 115.59 174.874 114.613C173.832 113.63 173.311 112.247 173.311 110.463ZM189.79 103.842V102.924C189.79 102.657 189.877 102.436 190.053 102.26C190.229 102.084 190.45 101.996 190.717 101.996H203.11C203.377 101.996 203.598 102.084 203.774 102.26C203.95 102.436 204.038 102.657 204.038 102.924V103.842C204.038 104.109 203.95 104.33 203.774 104.506C203.598 104.675 203.377 104.76 203.11 104.76H198.754V115.102C198.754 115.355 198.663 115.57 198.481 115.746C198.305 115.915 198.09 116 197.836 116H195.991C195.737 116 195.519 115.915 195.336 115.746C195.161 115.57 195.073 115.355 195.073 115.102V104.76H190.717C190.45 104.76 190.229 104.675 190.053 104.506C189.877 104.33 189.79 104.109 189.79 103.842Z" fill="white"/>
<path opacity="0.2" d="M37.9914 103.74L6.07138 21.63C5.75638 20.79 4.28638 20.79 3.97138 21.63L-27.8436 103.74C-28.1586 104.37 -27.7386 105 -26.7936 105H-12.4086C-11.9886 105 -11.4636 104.79 -11.3586 104.37L5.02138 57.54L21.6114 104.37C21.7164 104.79 22.2414 105 22.5564 105H37.0464C37.7814 105 38.3064 104.37 37.9914 103.74ZM87.6544 45.99C87.6544 55.23 75.2644 55.23 75.2644 55.23H62.6644V36.015H75.2644C75.2644 36.015 87.6544 35.91 87.6544 45.99ZM103.719 45.045C103.719 20.37 75.2644 21 75.2644 21H47.8594C47.2294 21 46.7044 21.525 46.7044 21.945V70.875H62.6644H75.2644C75.2644 70.875 88.8094 70.245 88.8094 80.115C88.8094 88.2 80.5144 89.67 75.2644 89.67H62.7694V105H75.2644C80.9344 105 104.874 103.95 104.874 80.535C104.874 80.535 105.399 67.515 92.0644 63C98.4694 60.375 103.719 54.81 103.719 45.045ZM161.454 63.21C161.454 58.8 157.989 55.23 153.579 55.23C149.169 55.23 145.704 58.8 145.704 63.21C145.704 67.515 149.169 71.085 153.579 71.085C157.989 71.085 161.454 67.515 161.454 63.21ZM194.004 62.895C194.004 42 180.459 21 153.684 21C126.489 21 113.154 42 113.154 62.895C113.154 83.895 126.489 105 153.684 105C180.459 105 194.004 83.895 194.004 62.895ZM178.254 63.21C178.254 76.755 169.959 90.3 153.684 90.3C137.199 90.3 129.009 76.755 129.009 63.21C129.009 49.455 137.199 35.805 153.684 35.805C169.959 35.805 178.254 49.455 178.254 63.21ZM265.241 21H251.591C250.856 21 250.436 21.525 250.436 21.945V76.965C250.436 85.47 242.666 89.565 234.791 89.565C227.021 89.565 220.091 85.155 219.146 76.86V36.225H203.291V76.965C203.291 94.29 217.466 105 234.791 105C252.641 105 266.291 94.71 266.291 76.965V21.945C266.291 21.525 265.766 21 265.241 21ZM292.09 51.45V104.055C292.09 104.475 292.51 105 293.245 105H306.79C307.525 105 308.05 104.475 308.05 104.055V51.45H292.09ZM275.92 35.385H324.115C324.85 35.385 325.27 34.965 325.27 34.44V21.945C325.27 21.525 324.85 21 324.115 21H275.92C275.29 21 274.765 21.525 274.765 21.945V34.44C274.765 34.965 275.29 35.385 275.92 35.385Z" fill="white"/>
</svg>
