<svg width="17" height="14" viewBox="0 0 17 14" fill="none" xmlns="http://www.w3.org/2000/svg">
<path d="M13.9161 1.81512C12.874 1.33695 11.7565 0.984661 10.5881 0.78289C10.5668 0.778996 10.5456 0.788727 10.5346 0.808191C10.3909 1.06381 10.2317 1.39729 10.1202 1.6594C8.86349 1.47125 7.61322 1.47125 6.38228 1.6594C6.27077 1.39146 6.1058 1.06381 5.96143 0.808191C5.95047 0.789377 5.92922 0.779645 5.90794 0.78289C4.74016 0.984016 3.62266 1.33631 2.5799 1.81512C2.57087 1.81901 2.56314 1.8255 2.558 1.83393C0.43833 5.00067 -0.142337 8.08958 0.142519 11.1402C0.143808 11.1551 0.152186 11.1694 0.163786 11.1785C1.56228 12.2055 2.91697 12.829 4.2465 13.2423C4.26778 13.2488 4.29032 13.241 4.30386 13.2234C4.61836 12.794 4.89871 12.3411 5.13908 11.8649C5.15327 11.837 5.13973 11.8039 5.11074 11.7929C4.66606 11.6242 4.24263 11.4185 3.83532 11.185C3.80311 11.1661 3.80053 11.1201 3.83017 11.098C3.91588 11.0338 4.00161 10.967 4.08346 10.8995C4.09826 10.8872 4.1189 10.8846 4.13631 10.8923C6.81213 12.114 9.70903 12.114 12.3533 10.8923C12.3707 10.8839 12.3913 10.8865 12.4068 10.8988C12.4886 10.9663 12.5743 11.0338 12.6607 11.098C12.6903 11.1201 12.6884 11.1661 12.6562 11.185C12.2489 11.4231 11.8255 11.6242 11.3801 11.7922C11.3511 11.8033 11.3382 11.837 11.3524 11.8649C11.598 12.3404 11.8783 12.7933 12.187 13.2228C12.1999 13.241 12.2231 13.2488 12.2444 13.2423C13.5803 12.829 14.935 12.2055 16.3335 11.1785C16.3458 11.1694 16.3535 11.1558 16.3548 11.1408C16.6957 7.614 15.7838 4.55042 13.9374 1.83457C13.9329 1.8255 13.9252 1.81901 13.9161 1.81512ZM5.53868 9.28269C4.73307 9.28269 4.06927 8.54308 4.06927 7.63477C4.06927 6.72645 4.7202 5.98685 5.53868 5.98685C6.36358 5.98685 7.02095 6.73295 7.00806 7.63477C7.00806 8.54308 6.35713 9.28269 5.53868 9.28269ZM10.9715 9.28269C10.166 9.28269 9.50216 8.54308 9.50216 7.63477C9.50216 6.72645 10.1531 5.98685 10.9715 5.98685C11.7965 5.98685 12.4538 6.73295 12.4409 7.63477C12.4409 8.54308 11.7965 9.28269 10.9715 9.28269Z" fill="white"/>
</svg>
