<svg width="216" height="86" viewBox="0 0 216 86" fill="none" xmlns="http://www.w3.org/2000/svg">
<path opacity="0.2" d="M49.7751 35.23H16.8051V16.225H40.6401V0.999999H1.89508C1.26508 0.999999 0.740082 1.525 0.740082 1.945V84.055C0.740082 84.475 1.26508 85 1.89508 85H6.30508H16.7001H16.8051V50.455H49.7751C50.4051 50.455 50.9301 49.93 50.9301 49.51V36.175C50.9301 35.65 50.4051 35.23 49.7751 35.23ZM124.722 83.74L92.8017 1.63C92.4867 0.789995 91.0167 0.789995 90.7017 1.63L58.8867 83.74C58.5717 84.37 58.9917 85 59.9367 85H74.3217C74.7417 85 75.2667 84.79 75.3717 84.37L91.7517 37.54L108.342 84.37C108.447 84.79 108.972 85 109.287 85H123.777C124.512 85 125.037 84.37 124.722 83.74ZM148.765 42.37C148.765 38.695 149.5 35.02 150.76 31.66L185.41 66.31C181.735 68.095 177.325 69.25 173.65 69.25C158.53 69.25 148.765 56.335 148.765 42.37ZM198.745 42.37C198.745 46.465 197.695 51.505 196.015 55.075L160.42 19.48C164.095 17.17 168.505 15.805 173.65 15.805C189.925 15.805 198.745 28.405 198.745 42.37ZM214.705 74.29L207.04 66.52C211.345 59.905 213.97 50.56 213.97 42.37C213.97 20.425 197.59 0.999999 173.65 0.999999C148.765 0.999999 133.435 20.425 133.435 42.37C133.435 64.525 149.5 84.055 173.65 84.055C181.945 84.055 189.82 81.43 196.435 77.125L203.995 84.79C204.52 85.105 205.15 85.105 205.675 84.79L214.705 75.655C215.23 75.235 215.23 74.605 214.705 74.29Z" fill="white"/>
</svg>
