<svg width="537" height="85" viewBox="0 0 537 85" fill="none" xmlns="http://www.w3.org/2000/svg">
<path opacity="0.2" d="M58.1513 83.635C52.9013 71.98 47.2313 60.43 41.9813 48.565C50.3813 45.52 57.4163 38.8 57.4163 25.99C57.4163 1.21 33.7913 0.999999 29.0663 0.999999H1.87129C1.34629 0.999999 0.821289 1.525 0.821289 1.945V16.225H16.7813H29.0663C31.5863 16.225 41.4563 16.75 41.4563 25.99C41.4563 35.23 32.5313 35.65 29.0663 35.65H16.7813H0.821289V84.055C0.821289 84.475 1.34629 85 1.87129 85H15.6263C16.2563 85 16.7813 84.475 16.7813 84.055V51.085H25.8113L41.1413 84.37C41.2463 84.685 41.8763 85 42.1913 85H57.2063C58.0463 85 58.4663 84.37 58.1513 83.635ZM114.853 43.21C114.853 38.8 111.388 35.23 106.978 35.23C102.568 35.23 99.1034 38.8 99.1034 43.21C99.1034 47.515 102.568 51.085 106.978 51.085C111.388 51.085 114.853 47.515 114.853 43.21ZM147.403 42.895C147.403 22 133.858 0.999999 107.083 0.999999C79.8884 0.999999 66.5534 22 66.5534 42.895C66.5534 63.895 79.8884 85 107.083 85C133.858 85 147.403 63.895 147.403 42.895ZM131.653 43.21C131.653 56.755 123.358 70.3 107.083 70.3C90.5984 70.3 82.4084 56.755 82.4084 43.21C82.4084 29.455 90.5984 15.805 107.083 15.805C123.358 15.805 131.653 29.455 131.653 43.21ZM222.63 83.74L190.71 1.63C190.395 0.789995 188.925 0.789995 188.61 1.63L156.795 83.74C156.48 84.37 156.9 85 157.845 85H172.23C172.65 85 173.175 84.79 173.28 84.37L189.66 37.54L206.25 84.37C206.355 84.79 206.88 85 207.195 85H221.685C222.42 85 222.945 84.37 222.63 83.74ZM246.253 0.999999H232.498C231.868 0.999999 231.343 1.525 231.343 1.945V34.915H247.408V16.33C265.678 15.385 279.223 23.05 279.223 43C279.223 68.935 257.593 69.985 247.408 69.565V51.085H231.343V84.055C231.343 84.475 231.868 85 232.498 85H246.253C267.148 85 295.393 78.91 295.393 43C295.393 5.72499 266.728 0.999999 246.253 0.999999ZM379.125 64.735H395.085V1.945C395.085 1.525 394.665 0.999999 393.93 0.999999H380.07C379.65 0.999999 379.125 1.31499 378.915 1.63L350.25 63.16L320.115 1.63C320.01 1.31499 319.38 0.999999 319.065 0.999999H304.995C304.26 0.999999 303.945 1.525 303.945 1.945V84.055C303.945 84.475 304.26 85 304.995 85H318.855C319.485 85 320.01 84.475 320.01 84.055V36.91L342.795 81.01C342.9 81.325 343.53 81.64 343.845 81.64H356.76C357.075 81.64 357.6 81.325 357.705 81.01L379.125 38.065V64.735ZM470.993 83.74L439.073 1.63C438.758 0.789995 437.288 0.789995 436.973 1.63L405.158 83.74C404.843 84.37 405.263 85 406.208 85H420.593C421.013 85 421.538 84.79 421.643 84.37L438.023 37.54L454.613 84.37C454.718 84.79 455.243 85 455.558 85H470.048C470.783 85 471.308 84.37 470.993 83.74ZM507.951 0.999999H480.756C480.231 0.999999 479.706 1.525 479.706 1.945V16.435H495.456H507.951C509.841 16.435 520.341 16.96 520.341 26.2C520.341 35.44 510.051 35.65 507.951 35.65H495.456H479.706V84.055C479.706 84.475 480.231 85 480.756 85H494.406C495.141 85 495.456 84.475 495.456 84.055V51.19H507.951C509.946 51.19 536.301 50.875 536.301 26.2C536.301 1.525 511.311 0.999999 507.951 0.999999Z" fill="white"/>
</svg>
