<svg width="20" height="18" viewBox="0 0 20 18" fill="none" xmlns="http://www.w3.org/2000/svg">
<path d="M19.4132 11.6792V12.6697C19.4132 12.7265 19.3784 12.7771 19.3279 12.7992C19.0183 12.9319 17.9583 13.4184 17.5176 14.0313C16.3929 15.5967 15.5336 17.8351 13.6127 17.8351H5.59923C2.75906 17.8351 0.45752 15.5256 0.45752 12.676V12.5843C0.45752 12.5085 0.519112 12.4469 0.594941 12.4469H5.06218C5.15061 12.4469 5.21538 12.5291 5.2075 12.6159C5.17589 12.9066 5.22961 13.2036 5.36703 13.4737C5.63241 14.0123 6.18212 14.3488 6.77606 14.3488H8.98757V12.6223H6.80134C6.68919 12.6223 6.62286 12.4927 6.68762 12.4011C6.7113 12.3648 6.73818 12.3269 6.76659 12.2842C6.97354 11.9904 7.26892 11.5339 7.56274 11.0142C7.76335 10.6635 7.95763 10.2891 8.11402 9.91319C8.14563 9.84526 8.17088 9.77574 8.19616 9.70781C8.23881 9.58776 8.28306 9.47562 8.31464 9.36347C8.34625 9.26867 8.37149 9.16916 8.39677 9.07596C8.47103 8.75687 8.50261 8.41883 8.50261 8.06816C8.50261 7.93074 8.49631 7.78698 8.48367 7.64956C8.47733 7.4995 8.45839 7.34941 8.43942 7.19935C8.42678 7.06666 8.4031 6.93554 8.37783 6.79812C8.34625 6.59751 8.302 6.39849 8.25145 6.19785L8.23407 6.12205C8.19616 5.9846 8.16458 5.85351 8.12036 5.71609C7.99554 5.28482 7.85182 4.86465 7.70016 4.47133C7.64487 4.31493 7.58168 4.16488 7.51849 4.01481C7.42532 3.78893 7.33051 3.58358 7.24364 3.38927C7.19943 3.3008 7.16151 3.22023 7.1236 3.1381C7.08095 3.0449 7.03673 2.95169 6.99248 2.86326C6.9609 2.79533 6.92455 2.73214 6.89928 2.66895L6.62917 2.16978C6.59125 2.10186 6.65444 2.02129 6.72867 2.04183L8.41891 2.49992H8.42365C8.42678 2.49992 8.42838 2.50151 8.42995 2.50151L8.65267 2.56311L8.89753 2.63263L8.98757 2.65788V1.65324C8.98757 1.16829 9.37616 0.774963 9.85638 0.774963C10.0965 0.774963 10.3145 0.872902 10.4709 1.03243C10.6272 1.19199 10.7252 1.40998 10.7252 1.65324V3.14444L10.9053 3.19496C10.9195 3.19972 10.9337 3.20603 10.9463 3.2155C10.9906 3.24868 11.0537 3.29763 11.1343 3.35769C11.1975 3.40821 11.2654 3.46983 11.3475 3.53302C11.5102 3.66411 11.7045 3.83314 11.9178 4.02745C11.9747 4.07641 12.0299 4.12696 12.0805 4.17751C12.3554 4.43341 12.6634 4.73354 12.9572 5.06527C13.0393 5.15847 13.1199 5.25324 13.202 5.35275C13.2842 5.45385 13.3711 5.55336 13.4469 5.6529C13.5464 5.78558 13.6538 5.92301 13.747 6.06676C13.7912 6.13469 13.8418 6.20418 13.8844 6.27211C14.0045 6.45375 14.1103 6.64176 14.2114 6.82973C14.2541 6.9166 14.2983 7.01137 14.3362 7.10458C14.4484 7.35574 14.5368 7.61164 14.5937 7.86754C14.6111 7.92283 14.6237 7.98286 14.63 8.03658V8.04922C14.649 8.12501 14.6553 8.20558 14.6616 8.28771C14.6869 8.54995 14.6743 8.81215 14.6174 9.07596C14.5937 9.18813 14.5621 9.29395 14.5242 9.40612C14.4863 9.51353 14.4484 9.62568 14.3994 9.73152C14.3046 9.95107 14.1925 10.1707 14.0598 10.376C14.0171 10.4518 13.9666 10.5324 13.916 10.6082C13.8607 10.6888 13.8039 10.7646 13.7533 10.8389C13.6838 10.9336 13.6096 11.0331 13.5338 11.1216C13.4658 11.2148 13.3964 11.308 13.3205 11.3901C13.2147 11.5149 13.1136 11.6334 13.0077 11.7471C12.9446 11.8214 12.8766 11.8972 12.8071 11.9651C12.7392 12.0409 12.6697 12.1089 12.6065 12.1721C12.5007 12.2779 12.4122 12.36 12.338 12.428L12.1642 12.5875C12.139 12.6096 12.1058 12.6223 12.071 12.6223H10.7252V14.3488H12.4185C12.7976 14.3488 13.1578 14.2145 13.4485 13.9681C13.548 13.8812 13.9824 13.5053 14.4958 12.9382C14.5131 12.9192 14.5353 12.905 14.5605 12.8987L19.2378 11.5465C19.3247 11.5213 19.4132 11.5876 19.4132 11.6792Z" fill="white"/>
</svg>
