<svg width="17" height="15" viewBox="0 0 17 15" fill="none" xmlns="http://www.w3.org/2000/svg">
<path d="M15.1041 3.98597C15.1108 4.13997 15.1108 4.28697 15.1108 4.44097C15.1176 9.10998 11.6872 14.5 5.41404 14.5C3.56382 14.5 1.74736 13.947 0.1875 12.911C0.457606 12.946 0.727711 12.96 0.997817 12.96C2.53067 12.96 4.023 12.428 5.23172 11.441C3.77315 11.413 2.49015 10.426 2.04448 8.98398C2.55768 9.08898 3.08438 9.06798 3.58408 8.92098C1.99721 8.59898 0.856011 7.14998 0.849259 5.46297C0.849259 5.44897 0.849259 5.43497 0.849259 5.42097C1.32194 5.69397 1.8554 5.84797 2.39561 5.86197C0.90328 4.82597 0.437348 2.76096 1.3422 1.14396C3.07763 3.35596 5.63013 4.69297 8.3717 4.83997C8.09484 3.61497 8.47299 2.32696 9.35759 1.45896C10.7284 0.121954 12.8892 0.191954 14.1857 1.61296C14.9488 1.45896 15.6848 1.16496 16.3533 0.751956C16.0967 1.57096 15.5633 2.26396 14.8542 2.70496C15.5295 2.62096 16.1913 2.43196 16.8125 2.15196C16.3533 2.86596 15.7726 3.48196 15.1041 3.98597Z" fill="white"/>
</svg>
